<?xml version="1.0" standalone="no"?><!DOCTYPE svg PUBLIC "-//W3C//DTD SVG 1.1//EN" "http://www.w3.org/Graphics/SVG/1.1/DTD/svg11.dtd"><svg t="1571733679905" class="icon" viewBox="0 0 1260 1024" version="1.1" xmlns="http://www.w3.org/2000/svg" p-id="2557" xmlns:xlink="http://www.w3.org/1999/xlink" width="246.09375" height="200"><defs><style type="text/css"></style></defs><path d="M1093.936317 0H167.043839C118.135671 0 78.520843 39.693586 78.520843 88.601754v770.244577c0 48.986925 39.614828 88.601754 88.601754 88.601754h926.734963c48.986925 0 88.601754-39.614828 88.601754-88.601754v-770.244577c0-48.829411-39.772343-88.601754-88.601754-88.601754z m-95.059836 88.601754l-329.992309 275.807414-1.890171 1.575142-1.732657 1.890171a43.94647 43.94647 0 0 1-31.896631 13.782495H633.207199a44.025227 44.025227 0 0 1-31.739117-13.38871l-1.732657-1.732656-336.922935-277.933856h736.142748z m94.981079 770.244577H167.122597V124.672512L539.722504 431.746501c25.123519 24.808491 58.12275 38.512229 93.563452 38.512228h0.5513A131.524381 131.524381 0 0 0 727.715736 430.958929l366.378096-306.128903v734.016305h-0.157515z" p-id="2558"></path></svg>