<?xml version="1.0" standalone="no"?><!DOCTYPE svg PUBLIC "-//W3C//DTD SVG 1.1//EN" "http://www.w3.org/Graphics/SVG/1.1/DTD/svg11.dtd"><svg t="1541500800209" class="icon" style="" viewBox="0 0 1024 1024" version="1.1" xmlns="http://www.w3.org/2000/svg" p-id="3860" xmlns:xlink="http://www.w3.org/1999/xlink" width="200" height="200"><defs><style type="text/css"></style></defs><path d="M980.042 416.388c-13.623-13.623-35.692-13.623-49.315 0L511.5 835.626 92.273 416.388c-13.623-13.623-35.692-13.623-49.315 0s-13.623 35.692 0 49.315l443.884 443.884c13.623 13.623 35.692 13.623 49.315 0l443.885-443.873c13.623-13.633 13.623-35.703 0-49.326z" p-id="3861"></path><path d="M980.042 67.638c-13.623-13.623-35.692-13.623-49.315 0L511.5 486.876 92.273 67.638c-13.623-13.623-35.692-13.623-49.315 0s-13.623 35.692 0 49.315l443.884 443.884c13.623 13.623 35.692 13.623 49.315 0l443.885-443.873c13.623-13.633 13.623-35.703 0-49.326z" p-id="3862"></path></svg>