<?xml version="1.0" standalone="no"?><!DOCTYPE svg PUBLIC "-//W3C//DTD SVG 1.1//EN" "http://www.w3.org/Graphics/SVG/1.1/DTD/svg11.dtd"><svg t="1541500858923" class="icon" style="" viewBox="0 0 1024 1024" version="1.1" xmlns="http://www.w3.org/2000/svg" p-id="1003" xmlns:xlink="http://www.w3.org/1999/xlink" width="200" height="200"><defs><style type="text/css"></style></defs><path d="M43.958 607.612c13.623 13.623 35.69199999 13.623 49.315 0L512.5 188.374 931.727 607.612c13.623 13.623 35.69199999 13.623 49.315 0s13.623-35.69199999 0-49.315l-443.884-443.884c-13.623-13.623-35.69199999-13.623-49.315 0l-443.885 443.87299999c-13.623 13.633-13.623 35.703 0 49.32600001z" p-id="1004"></path><path d="M43.958 956.362c13.623 13.623 35.69199999 13.623 49.315 0L512.5 537.124 931.727 956.362c13.623 13.623 35.69199999 13.623 49.315 0s13.623-35.69199999 0-49.315l-443.884-443.884c-13.623-13.623-35.69199999-13.623-49.315 0l-443.885 443.873c-13.623 13.633-13.623 35.703 0 49.326z" p-id="1005"></path></svg>